<svg xmlns="http://www.w3.org/2000/svg" version="1.1" xmlns:xlink="http://www.w3.org/1999/xlink" xmlns:svgjs="http://svgjs.dev/svgjs" width="1440" height="560" preserveAspectRatio="none" viewBox="0 0 1440 560"><g mask="url(&quot;#SvgjsMask1000&quot;)" fill="none"><rect width="1440" height="560" x="0" y="0" fill="#0e2a47"></rect><path d="M269.59 340.97 a17.63 17.63 0 1 0 35.26 0 a17.63 17.63 0 1 0 -35.26 0z" fill="#037b0b"></path><path d="M397.55 363.8L413.2 363.8L413.2 379.45L397.55 379.45z" fill="#037b0b"></path><path d="M870.22 500.42 a20.71 20.71 0 1 0 41.42 0 a20.71 20.71 0 1 0 -41.42 0z" stroke="#d3b714"></path><path d="M1063 275.12a43.92 43.92 0 1 0-87.52 7.45z" stroke="#d3b714"></path><path d="M677.96 25.64L698.05 25.64L698.05 29.2L677.96 29.2z" fill="#037b0b"></path><path d="M598.76 53.77 a42.76 42.76 0 1 0 85.52 0 a42.76 42.76 0 1 0 -85.52 0z" stroke="#037b0b"></path><path d="M1393.38 128.46L1447.83 128.46L1447.83 182.91L1393.38 182.91z" stroke="#037b0b"></path><path d="M596.97 115.62a8.93 8.93 0 1 0 16.33 7.24z" stroke="#d3b714"></path><path d="M1046.96 317.62L1051.3 317.62L1051.3 321.96L1046.96 321.96z" fill="#e73635"></path><path d="M679.63 415.29L682.42 415.29L682.42 442.1L679.63 442.1z" fill="#037b0b"></path><path d="M-43.22 106 a44.95 44.95 0 1 0 89.9 0 a44.95 44.95 0 1 0 -89.9 0z" fill="#d3b714"></path><path d="M921.98 284.58a38.77 38.77 0 1 0-13.29-76.39z" fill="#037b0b"></path><path d="M481.05 20.2L526.97 20.2L526.97 39.78L481.05 39.78z" fill="#037b0b"></path><path d="M857.61 365.42L872.81 365.42L872.81 380.62L857.61 380.62z" stroke="#037b0b"></path><path d="M487.42 353.8 a20.04 20.04 0 1 0 40.08 0 a20.04 20.04 0 1 0 -40.08 0z" stroke="#d3b714"></path><path d="M1300.61 302.67a2.92 2.92 0 1 0-4.84 3.28z" stroke="#d3b714"></path><path d="M772.01 501.47L802.78 501.47L802.78 532.24L772.01 532.24z" fill="#d3b714"></path><path d="M1108.5 489.35L1141.96 489.35L1141.96 522.81L1108.5 522.81z" fill="#e73635"></path><path d="M611.36 403.57a14.03 14.03 0 1 0 25 12.74z" fill="#d3b714"></path><path d="M1003.33 264.23a20.87 20.87 0 1 0 39.44 13.68z" fill="#d3b714"></path><path d="M1285.9 480.15L1316.31 480.15L1316.31 510.56L1285.9 510.56z" fill="#d3b714"></path><path d="M566.41 540.09a13.82 13.82 0 1 0-17.12 21.7z" stroke="#d3b714"></path><path d="M1385.69 163.2a13.47 13.47 0 1 0-16.46-21.33z" stroke="#e73635"></path><path d="M1250.61 547.59L1296.28 547.59L1296.28 562.84L1250.61 562.84z" fill="#e73635"></path><path d="M1268.91 245.89L1284.86 245.89L1284.86 261.84L1268.91 261.84z" fill="#d3b714"></path><path d="M921.82 499.95a43.1 43.1 0 1 0-66.11 55.31z" fill="#037b0b"></path><path d="M542.16 126.83L564.53 126.83L564.53 161.83L542.16 161.83z" fill="#037b0b"></path><path d="M282.22 234.1 a30.41 30.41 0 1 0 60.82 0 a30.41 30.41 0 1 0 -60.82 0z" fill="#037b0b"></path><path d="M1288.93 242.54L1319.41 242.54L1319.41 276.56L1288.93 276.56z" fill="#d3b714"></path><path d="M944.68 188.01 a2.77 2.77 0 1 0 5.54 0 a2.77 2.77 0 1 0 -5.54 0z" stroke="#d3b714"></path><path d="M436.67 287.3L484.05 287.3L484.05 296.57L436.67 296.57z" fill="#037b0b"></path><path d="M782.72 20.02L822.03 20.02L822.03 59.33L782.72 59.33z" stroke="#037b0b"></path><path d="M886.21 74.29 a4.39 4.39 0 1 0 8.78 0 a4.39 4.39 0 1 0 -8.78 0z" stroke="#e73635"></path></g><defs><mask id="SvgjsMask1000"><rect width="1440" height="560" fill="#ffffff"></rect></mask></defs></svg>